<?xml version="1.0" encoding="UTF-8"?>
<!DOCTYPE svg PUBLIC "-//W3C//DTD SVG 1.1//EN" "http://www.w3.org/Graphics/SVG/1.1/DTD/svg11.dtd">
<!-- Creator: CorelDRAW 2019 (64-Bit) -->
<svg xmlns="http://www.w3.org/2000/svg" xml:space="preserve" width="1.43374in" height="0.23498in" version="1.1" style="shape-rendering:geometricPrecision; text-rendering:geometricPrecision; image-rendering:optimizeQuality; fill-rule:evenodd; clip-rule:evenodd"
viewBox="0 0 299.6 49.1"
 xmlns:xlink="http://www.w3.org/1999/xlink">
 <defs>
  <style type="text/css">
   <![CDATA[
    .fil1 {fill:white}
    .fil0 {fill:#FEFEFE;fill-rule:nonzero}
   ]]>
  </style>
 </defs>
 <g id="Layer_x0020_1">
  <metadata id="CorelCorpID_0Corel-Layer"/>
  <path class="fil0" d="M75.06 1.11l18.41 0c3.65,0 6.37,0.15 8.16,0.45 1.8,0.31 3.4,0.94 4.81,1.9 1.42,0.97 2.59,2.24 3.54,3.84 0.94,1.6 1.41,3.4 1.41,5.38 0,2.14 -0.58,4.13 -1.74,5.92 -1.16,1.8 -2.73,3.14 -4.72,4.04 2.8,0.83 4.94,2.22 6.45,4.19 1.5,1.97 2.25,4.29 2.25,6.96 0,2.1 -0.48,4.14 -1.46,6.12 -0.97,1.98 -2.3,3.57 -4,4.76 -1.68,1.18 -3.76,1.91 -6.24,2.19 -1.54,0.16 -5.28,0.27 -11.21,0.31l-15.68 0 0 -46.04zm9.32 7.65l0 10.61 6.09 0c3.61,0 5.86,-0.05 6.74,-0.16 1.59,-0.18 2.84,-0.73 3.75,-1.64 0.91,-0.91 1.36,-2.1 1.36,-3.58 0,-1.42 -0.4,-2.57 -1.18,-3.46 -0.78,-0.89 -1.95,-1.43 -3.49,-1.61 -0.92,-0.11 -3.57,-0.16 -7.93,-0.16l-5.34 0zm0 18.26l0 12.35 8.62 0c3.34,0 5.48,-0.1 6.38,-0.28 1.38,-0.26 2.51,-0.87 3.38,-1.84 0.87,-0.99 1.31,-2.28 1.31,-3.92 0,-1.39 -0.33,-2.56 -1.01,-3.53 -0.66,-0.97 -1.64,-1.67 -2.9,-2.11 -1.26,-0.44 -4.02,-0.66 -8.25,-0.66l-7.51 0z"/>
  <path id="1" class="fil0" d="M116.01 30.06c0,-2.94 0.72,-5.78 2.17,-8.52 1.45,-2.75 3.49,-4.84 6.14,-6.29 2.65,-1.45 5.59,-2.18 8.86,-2.18 5.05,0 9.17,1.64 12.4,4.92 3.23,3.29 4.83,7.43 4.83,12.44 0,5.06 -1.63,9.25 -4.88,12.57 -3.26,3.32 -7.35,4.98 -12.29,4.98 -3.05,0 -5.97,-0.7 -8.74,-2.08 -2.77,-1.38 -4.88,-3.41 -6.32,-6.09 -1.45,-2.67 -2.17,-5.93 -2.17,-9.76zm9.07 0.47c0,3.31 0.78,5.85 2.35,7.61 1.58,1.77 3.5,2.65 5.81,2.65 2.29,0 4.22,-0.88 5.78,-2.65 1.55,-1.76 2.34,-4.32 2.34,-7.67 0,-3.27 -0.78,-5.79 -2.34,-7.54 -1.55,-1.77 -3.48,-2.65 -5.78,-2.65 -2.3,0 -4.23,0.88 -5.81,2.65 -1.56,1.76 -2.35,4.3 -2.35,7.61z"/>
  <path id="2" class="fil0" d="M151.92 30.06c0,-2.94 0.72,-5.78 2.17,-8.52 1.45,-2.75 3.49,-4.84 6.14,-6.29 2.65,-1.45 5.59,-2.18 8.86,-2.18 5.05,0 9.17,1.64 12.4,4.92 3.23,3.29 4.83,7.43 4.83,12.44 0,5.06 -1.63,9.25 -4.88,12.57 -3.26,3.32 -7.35,4.98 -12.29,4.98 -3.05,0 -5.97,-0.7 -8.74,-2.08 -2.77,-1.38 -4.88,-3.41 -6.32,-6.09 -1.45,-2.67 -2.17,-5.93 -2.17,-9.76zm9.07 0.47c0,3.31 0.78,5.85 2.35,7.61 1.58,1.77 3.5,2.65 5.81,2.65 2.29,0 4.22,-0.88 5.78,-2.65 1.55,-1.76 2.34,-4.32 2.34,-7.67 0,-3.27 -0.78,-5.79 -2.34,-7.54 -1.55,-1.77 -3.48,-2.65 -5.78,-2.65 -2.3,0 -4.23,0.88 -5.81,2.65 -1.56,1.76 -2.35,4.3 -2.35,7.61z"/>
  <polygon id="3" class="fil0" points="189.56,47.15 189.56,1.11 198.37,1.11 198.37,25.54 208.69,13.78 219.56,13.78 208.17,25.98 220.39,47.15 210.88,47.15 202.45,32.1 198.37,36.47 198.37,47.15 "/>
  <polygon id="4" class="fil0" points="222.27,47.15 222.27,1.11 231.08,1.11 231.08,47.15 "/>
  <path id="5" class="fil0" d="M236.77 9.28l0 -8.17 8.81 0 0 8.17 -8.81 0zm0 37.87l0 -33.37 8.81 0 0 33.37 -8.81 0z"/>
  <path id="6" class="fil0" d="M248.12 37.77l8.87 -1.35c0.38,1.7 1.14,3 2.29,3.88 1.15,0.89 2.77,1.33 4.83,1.33 2.28,0 4,-0.42 5.15,-1.25 0.77,-0.59 1.16,-1.38 1.16,-2.37 0,-0.66 -0.21,-1.22 -0.63,-1.66 -0.44,-0.42 -1.43,-0.81 -2.95,-1.17 -7.13,-1.58 -11.64,-3.01 -13.55,-4.31 -2.65,-1.81 -3.96,-4.32 -3.96,-7.52 0,-2.9 1.15,-5.34 3.43,-7.31 2.28,-1.97 5.82,-2.96 10.61,-2.96 4.57,0 7.96,0.75 10.18,2.24 2.22,1.5 3.75,3.71 4.59,6.63l-8.29 1.54c-0.35,-1.31 -1.04,-2.31 -2.04,-3.01 -1,-0.7 -2.42,-1.04 -4.28,-1.04 -2.34,0 -4.01,0.32 -5.03,0.98 -0.68,0.46 -1.01,1.06 -1.01,1.79 0,0.63 0.29,1.17 0.88,1.61 0.8,0.59 3.56,1.41 8.27,2.49 4.71,1.07 8,2.38 9.87,3.93 1.85,1.56 2.78,3.76 2.78,6.57 0,3.05 -1.28,5.69 -3.84,7.89 -2.55,2.2 -6.33,3.3 -11.35,3.3 -4.54,0 -8.14,-0.92 -10.8,-2.75 -2.65,-1.83 -4.38,-4.32 -5.2,-7.47z"/>
  <path id="7" class="fil0" d="M298.9 13.78l0 7.01 -6.04 0 0 13.51c0,2.74 0.05,4.34 0.17,4.79 0.12,0.45 0.38,0.83 0.79,1.13 0.41,0.29 0.9,0.44 1.49,0.44 0.83,0 2,-0.28 3.56,-0.85l0.74 6.86c-2.05,0.88 -4.36,1.32 -6.96,1.32 -1.59,0 -3.01,-0.27 -4.29,-0.8 -1.28,-0.54 -2.21,-1.23 -2.8,-2.08 -0.6,-0.86 -1.01,-2 -1.24,-3.46 -0.18,-1.03 -0.28,-3.11 -0.28,-6.25l0 -14.61 -4.05 0 0 -7.01 4.05 0 0 -6.62 8.81 -5.21 0 11.83 6.04 0z"/>
  <g id="_1884566737184">
   <path class="fil1" d="M-0 42.62c10.55,9.69 18.73,7.53 25.83,0 0,-14.21 0,-28.41 0,-42.62 -7.77,10.49 -16.34,11.03 -25.83,0 0,14.21 0,28.41 0,42.62z"/>
   <path class="fil1" d="M56.92 42.62c-10.55,9.69 -18.73,7.53 -25.83,0 0,-14.21 0,-28.41 0,-42.62 7.77,10.49 16.34,11.03 25.83,0 0,14.21 0,28.41 0,42.62z"/>
  </g>
 </g>
</svg>
